<svg id="Capa_1" enable-background="new 0 0 512 512" height="512" viewBox="0 0 512 512" width="512" xmlns="http://www.w3.org/2000/svg"><g><path d="m239.942 274.246c-5.522 0-10 4.478-10 10v.085c0 5.522 4.478 9.957 10 9.957s10-4.52 10-10.042-4.477-10-10-10z"/><path d="m188.947 274.246c-5.522 0-10 4.478-10 10v.085c0 5.522 4.478 9.957 10 9.957s10-4.52 10-10.042-4.477-10-10-10z"/><path d="m137.925 274.246c-5.522 0-10 4.478-10 10v.085c0 5.522 4.478 9.957 10 9.957s10-4.52 10-10.042-4.478-10-10-10z"/><path d="m97.561 67.628c-18.628 0-33.782 15.152-33.782 33.777 0 18.641 15.154 33.806 33.782 33.806 18.612 0 33.754-15.165 33.754-33.806-.001-18.625-15.142-33.777-33.754-33.777zm0 47.583c-7.6 0-13.782-6.193-13.782-13.806 0-7.597 6.183-13.777 13.782-13.777 7.584 0 13.754 6.181 13.754 13.777-.001 7.613-6.17 13.806-13.754 13.806z"/><path d="m192.604 67.628c-18.612 0-33.754 15.152-33.754 33.777 0 18.641 15.142 33.806 33.754 33.806s33.754-15.165 33.754-33.806c0-18.625-15.141-33.777-33.754-33.777zm0 47.583c-7.584 0-13.754-6.193-13.754-13.806 0-7.597 6.17-13.777 13.754-13.777s13.754 6.181 13.754 13.777c0 7.613-6.17 13.806-13.754 13.806z"/><path d="m414.439 67.628h-108.196c-18.612 0-33.754 15.152-33.754 33.777 0 18.641 15.142 33.806 33.754 33.806h108.196c18.612 0 33.754-15.165 33.754-33.806 0-18.625-15.141-33.777-33.754-33.777zm0 47.583h-108.196c-7.584 0-13.754-6.193-13.754-13.806 0-7.597 6.17-13.777 13.754-13.777h108.196c7.584 0 13.754 6.181 13.754 13.777 0 7.613-6.17 13.806-13.754 13.806z"/><path d="m467.588 24.5h-423.176c-24.489 0-44.412 19.938-44.412 44.446v236.75c0 5.522 4.478 10 10 10s10-4.478 10-10v-127.357h472v264.715c0 13.479-10.951 24.446-24.412 24.446h-423.176c-13.461 0-24.412-10.967-24.412-24.446v-47.469c0-5.522-4.478-10-10-10s-10 4.478-10 10v47.469c0 24.508 19.923 44.446 44.412 44.446h423.176c24.489 0 44.412-19.938 44.412-44.446v-374.108c0-24.508-19.923-44.446-44.412-44.446zm24.412 133.839h-472v-89.393c0-13.479 10.951-24.446 24.412-24.446h423.176c13.461 0 24.412 10.967 24.412 24.446z"/><path d="m329.544 342.042c5.522 0 10-4.521 10-10.043s-4.478-10-10-10-10 4.478-10 10v.085c0 5.522 4.477 9.958 10 9.958z"/><path d="m380.538 342.042c5.522 0 10-4.521 10-10.043s-4.478-10-10-10-10 4.478-10 10v.085c0 5.522 4.478 9.958 10 9.958z"/><path d="m279.343 211.001h-180.819c-10.828 0-19.638 8.813-19.638 19.647v111.65c0 10.834 8.81 19.647 19.638 19.647h19.494l11.524 31.021c1.127 3.034 3.652 5.335 6.778 6.175.856.23 1.729.343 2.595.343 2.297 0 4.553-.791 6.365-2.287l42.724-35.251h31.478v28.105c0 10.834 8.81 19.647 19.638 19.647h91.336l42.723 35.277c1.813 1.497 4.07 2.289 6.368 2.289.865 0 1.736-.112 2.591-.342 3.126-.839 5.652-3.139 6.78-6.172l11.552-31.053h19.469c10.844 0 19.666-8.813 19.666-19.647v-111.65c0-10.834-8.822-19.647-19.666-19.647h-120.93v-28.105c0-10.834-8.822-19.647-19.666-19.647zm-94.931 130.945c-2.322 0-4.573.809-6.364 2.287l-34.652 28.592-9.051-24.361c-1.456-3.918-5.194-6.518-9.374-6.518h-26.084v-110.945h180.122v37.192c-.01.187-.028.371-.028.561s.018.374.028.561v72.632h-94.597zm235.192-63.192v110.945h-26.084c-4.178 0-7.916 2.598-9.372 6.514l-9.074 24.392-34.656-28.616c-1.792-1.479-4.043-2.289-6.367-2.289h-94.568v-27.753h39.86c10.844 0 19.666-8.813 19.666-19.647v-63.545h120.595z"/><path d="m10 360.641c5.522 0 10-4.478 10-10v-.057c0-5.522-4.478-9.972-10-9.972s-10 4.506-10 10.028 4.478 10.001 10 10.001z"/></g></svg>