<svg id="Layer_1" enable-background="new 0 0 512 512" height="512" viewBox="0 0 512 512" width="512" 
    xmlns="http://www.w3.org/2000/svg">
    <g>
        <g>
            <path d="m256 512c-141.159 0-256-114.841-256-256s114.841-256 256-256 256 114.841 256 256-114.841 256-256 256z" fill="#fff"/>
        </g>
        <path d="m256 0v512c141.159 0 256-114.841 256-256s-114.841-256-256-256z" fill="#fff"/>
        <g>
            <path d="m130.862 223.001c-3.085 0-6.197-.948-8.874-2.916-6.674-4.908-8.106-14.296-3.199-20.971l28.292-38.478c5.721-7.781 14.526-12.25 24.159-12.262h.034c9.608 0 18.406 4.443 24.145 12.193l28.512 38.505c4.93 6.658 3.529 16.051-3.129 20.981-6.658 4.929-16.052 3.528-20.981-3.129l-28.512-38.506c-.012-.016-.022-.031-.033-.044-.007.01-.015.02-.023.031l-28.292 38.478c-2.941 4.001-7.49 6.118-12.099 6.118z" fill="#00347b"/>
        </g>
        <g>
            <path d="m300.113 223.001c-3.085 0-6.197-.948-8.874-2.916-6.674-4.908-8.106-14.296-3.199-20.971l28.292-38.478c5.721-7.781 14.526-12.25 24.159-12.262h.034c9.608 0 18.406 4.443 24.145 12.193l28.512 38.505c4.93 6.658 3.529 16.051-3.129 20.981-6.659 4.929-16.052 3.528-20.981-3.129l-28.512-38.506c-.012-.016-.022-.031-.033-.044-.007.01-.015.02-.023.031l-28.292 38.478c-2.941 4.001-7.49 6.118-12.099 6.118z" fill="#001737"/>
        </g>
        <g>
            <path d="m256 393c-28.952 0-55.663 32.718-77 16.285-30.041-23.136-49.431-59.454-49.431-100.217v-2.068c0-4.142 3.358-7.5 7.5-7.5h237.863c4.142 0 7.5 3.358 7.5 7.5v2.068c0 40.762-19.39 77.08-49.431 100.216-21.338 16.434-48.049-16.284-77.001-16.284z" fill="#00347b"/>
        </g>
        <path d="m374.931 299.5h-118.931v93.5c28.952 0 55.663 32.718 77 16.285 30.041-23.136 49.431-59.454 49.431-100.216v-2.069c0-4.142-3.358-7.5-7.5-7.5z" fill="#001737"/>
        <path d="m178.946 409.233c21.347 16.46 48.075 26.267 77.054 26.267s55.707-9.807 77.054-26.267c-5.836-28.459-38.109-50.233-77.054-50.233-38.946 0-71.218 21.774-77.054 50.233z" fill="#ff3f5c"/>
        <path d="m256 435.5c28.979 0 55.706-9.807 77.053-26.267-5.835-28.459-38.108-50.233-77.053-50.233z" fill="#d20763"/>
    </g>
</svg>