<?xml version="1.0"?>
<svg xmlns="http://www.w3.org/2000/svg" width="512" height="512" viewBox="0 0 512 512"><g><path d="M496,376H464V176a40.04,40.04,0,0,0-40-40H392V88a24.032,24.032,0,0,0-24-24H144a24.032,24.032,0,0,0-24,24v48H88a40.04,40.04,0,0,0-40,40V376H16a8,8,0,0,0-8,8v32a40.04,40.04,0,0,0,40,40H464a40.04,40.04,0,0,0,40-40V384A8,8,0,0,0,496,376ZM392,176h32V352H392ZM136,88a8.011,8.011,0,0,1,8-8H368a8.011,8.011,0,0,1,8,8v24H136Zm0,40H376V352H136ZM64,176a24.032,24.032,0,0,1,24-24h32v8H80a8,8,0,0,0-8,8V360a8,8,0,0,0,8,8H432a8,8,0,0,0,8-8V168a8,8,0,0,0-8-8H392v-8h32a24.032,24.032,0,0,1,24,24V376H64Zm56,0V352H88V176ZM293.75,392l-4,16h-67.5l-4-16ZM488,416a24.032,24.032,0,0,1-24,24H48a24.032,24.032,0,0,1-24-24V392H201.75l6.49,25.94A8,8,0,0,0,216,424h80a8,8,0,0,0,7.76-6.06L310.25,392H488Z"/><path d="M256,144a72,72,0,1,0,72,72A72.083,72.083,0,0,0,256,144Zm0,128a55.823,55.823,0,0,1-39.44-16.29,8.142,8.142,0,0,0,2.11.29h74.66a8.142,8.142,0,0,0,2.11-.29A55.823,55.823,0,0,1,256,272Zm0-53.33a29.174,29.174,0,0,0,14.15-3.65,23.919,23.919,0,0,1,15.18,22.31V240H226.67v-2.67a23.919,23.919,0,0,1,15.18-22.31A29.174,29.174,0,0,0,256,218.67Zm-13.33-29.34A13.33,13.33,0,1,1,256,202.67,13.345,13.345,0,0,1,242.67,189.33Zm58.61,59.57c.03-.3.05-.6.05-.9V237.33a39.89,39.89,0,0,0-19.4-34.31,29.33,29.33,0,1,0-51.86,0,39.89,39.89,0,0,0-19.4,34.31V248c0,.3.02.6.05.9a56,56,0,1,1,90.56,0Z"/><path d="M88,400H40a8,8,0,0,0,0,16H88a8,8,0,0,0,0-16Z"/><path d="M120,400h-8a8,8,0,0,0,0,16h8a8,8,0,0,0,0-16Z"/><circle cx="152" cy="96" r="8"/><circle cx="176" cy="96" r="8"/><circle cx="200" cy="96" r="8"/><path d="M312,296H200a8,8,0,0,0,0,16H312a8,8,0,0,0,0-16Z"/><path d="M288,320H224a8,8,0,0,0,0,16h64a8,8,0,0,0,0-16Z"/></g></svg>
