<svg height="512pt" viewBox="-61 0 512 512" width="512pt" xmlns="http://www.w3.org/2000/svg"><path d="m45 107c0 57.988281 47.011719 105 105 105s105-47.011719 105-105-47.011719-107-105-107-105 49.011719-105 107zm135 0c0-8.289062 6.710938-15 15-15s15 6.710938 15 15c0 33.089844-26.910156 60-60 60s-60-26.910156-60-60c0-8.289062 6.710938-15 15-15s15 6.710938 15 15c0 16.539062 13.460938 30 30 30s30-13.460938 30-30zm0 0"/><path d="m272.257812 305.558594c-27.171874-38.347656-71.683593-63.558594-122.257812-63.558594-82.84375 0-150 67.15625-150 150v75c0 8.285156 6.714844 15 15 15h181.695312c-10.339843-17.722656-16.695312-38.046875-16.695312-60 0-56.578125 39.484375-103.84375 92.257812-116.441406zm0 0"/><path d="m300 512c49.707031 0 90-40.292969 90-90s-40.292969-90-90-90-90 40.292969-90 90 40.292969 90 90 90zm-30-105h15v-15c0-8.289062 6.710938-15 15-15s15 6.710938 15 15v15h15c8.289062 0 15 6.710938 15 15s-6.710938 15-15 15h-15v15c0 8.289062-6.710938 15-15 15s-15-6.710938-15-15v-15h-15c-8.289062 0-15-6.710938-15-15s6.710938-15 15-15zm0 0"/></svg>