<?xml version="1.0"?>
<svg xmlns="http://www.w3.org/2000/svg" width="512" height="512" viewBox="0 0 512 512"><g><path d="M480,8H32A24.032,24.032,0,0,0,8,32V480a24.032,24.032,0,0,0,24,24H480a24.032,24.032,0,0,0,24-24V32A24.032,24.032,0,0,0,480,8Zm8,472a8.011,8.011,0,0,1-8,8H32a8.011,8.011,0,0,1-8-8V72H488Zm0-424H24V32a8.011,8.011,0,0,1,8-8H480a8.011,8.011,0,0,1,8,8Z"/><path d="M107.578,424.845l-32-16A8,8,0,0,0,64,416v32a8,8,0,0,0,11.578,7.155l32-16a8,8,0,0,0,0-14.31ZM80,435.056v-6.112L86.111,432Z"/><circle cx="40" cy="40" r="8"/><circle cx="65" cy="40" r="8"/><circle cx="89" cy="40" r="8"/><path d="M40,480H472a8,8,0,0,0,8-8V392a8,8,0,0,0-8-8H335V371.73a68.594,68.594,0,0,0-39.6-62.3,48.5,48.5,0,1,0-78.05-.34A68.6,68.6,0,0,0,177,371.73V384H40a8,8,0,0,0-8,8v80A8,8,0,0,0,40,480ZM256.5,248a32.488,32.488,0,0,1,20.77,57.48,7.872,7.872,0,0,0-2.55,1.92A32.5,32.5,0,1,1,256.5,248ZM193,371.73a52.651,52.651,0,0,1,37.29-50.46,48.323,48.323,0,0,0,52.09.22A52.614,52.614,0,0,1,319,371.73V384H193ZM48,400H464v64H48Z"/><path d="M440,424H374.62a23.99,23.99,0,0,0-45.24,0H136a8,8,0,0,0,0,16H329.38a23.99,23.99,0,0,0,45.24,0H440a8,8,0,0,0,0-16Zm-88,16a8,8,0,1,1,8-8A8.011,8.011,0,0,1,352,440Z"/><path d="M320,248h22.56l-6.45,38.68a8,8,0,0,0,14.04,6.44L387.75,248H448a8,8,0,0,0,8-8V136a8,8,0,0,0-8-8H320a8,8,0,0,0-8,8V240A8,8,0,0,0,320,248Zm8-104H440v88H384a8,8,0,0,0-6.15,2.88l-21.11,25.33,3.15-18.89A8.007,8.007,0,0,0,352,232H328Z"/><path d="M344,168h80a8,8,0,0,0,0-16H344a8,8,0,0,0,0,16Z"/><path d="M344,192h80a8,8,0,0,0,0-16H344a8,8,0,0,0,0,16Z"/><path d="M384,208a8,8,0,0,0-8-8H344a8,8,0,0,0,0,16h32A8,8,0,0,0,384,208Z"/><path d="M196.48,89.38a8,8,0,0,0-7.45-.81L160,100.18V88a8,8,0,0,0-8-8H40a8,8,0,0,0-8,8v96a8,8,0,0,0,8,8H152a8,8,0,0,0,8-8V171.82l29.03,11.61A8.078,8.078,0,0,0,192,184a8.017,8.017,0,0,0,8-8V96A7.987,7.987,0,0,0,196.48,89.38ZM144,176H48V96h96Zm40-11.82-24-9.6V117.42l24-9.6Z"/><path d="M124.12,129.14l-40-24A8,8,0,0,0,72,112v48a8,8,0,0,0,12.12,6.86l40-24a8,8,0,0,0,0-13.72ZM88,145.87V126.13L104.45,136Z"/></g></svg>
